<svg width="144" height="90" viewBox="0 0 144 90" fill="none" xmlns="http://www.w3.org/2000/svg">
<path d="M116.804 86.8833L114.79 85.301L118.818 75.0879H125.866L130.038 85.301L128.168 86.8833L125.435 88.0341L122.414 88.6095L119.537 88.0341L116.804 86.8833Z" fill="white"/>
<path d="M83.4307 15.6794V0.431641L59.8398 51.3534V66.0258L83.4307 15.6794Z" fill="white"/>
<path d="M34.8105 81.7053V53.2236L42.1467 56.2444V75.6637C46.4403 77.572 50.9835 78.8597 55.6398 79.4882L60.7351 80.1759C68.2561 81.191 75.8789 81.2001 83.4023 80.203L87.3314 79.6823C93.0589 78.9232 98.693 77.5766 104.145 75.6637V56.2444L110.906 51.7852V81.7053C107.866 83.7 104.466 85.0821 100.897 85.774L92.2055 87.4592L91.0719 87.5968C78.4511 89.1294 65.6885 89.0831 53.0791 87.4592L44.5534 85.7718C41.0665 85.0817 37.7535 83.6989 34.8105 81.7053Z" fill="white"/>
<path d="M56.6757 15.3916V0L0 33.2286L56.6757 66.4573V51.4972L25.3171 33.2286L56.6757 15.3916Z" fill="white"/>
<path d="M86.5958 15.3916V0L143.271 33.2286L86.5958 66.4573V51.4972L117.954 33.2286L86.5958 15.3916Z" fill="white"/>
<rect x="120.831" y="44.3047" width="2.87694" height="24.454" fill="white"/>
<circle cx="122.27" cy="72.4982" r="4.89079" fill="white"/>
</svg>
